<?xml version="1.0" encoding="utf-8"?>
<!-- Generator: Adobe Illustrator 23.1.1, SVG Export Plug-In . SVG Version: 6.00 Build 0)  -->
<svg version="1.1" id="레이어_1" xmlns="http://www.w3.org/2000/svg" xmlns:xlink="http://www.w3.org/1999/xlink" x="0px"
	 y="0px" viewBox="0 0 40.81 40.59" style="enable-background:new 0 0 40.81 40.59;" xml:space="preserve">
<style type="text/css">
	.st0{fill:none;stroke:#FFFFFF;stroke-miterlimit:10;}
	.st1{display:none;fill:#FFFFFF;}
	.st2{display:none;}
	.st3{display:inline;fill:#FFFFFF;}
	.st4{fill:#FFFFFF;}
</style>
<circle class="st0" cx="20.3" cy="20.23" r="18.81"/>
<path class="st1" d="M27.07,13.46H13.55c-0.19,0-0.35,0.16-0.35,0.35v13.51c0,0.19,0.16,0.35,0.35,0.35h13.51
	c0.19,0,0.35-0.16,0.35-0.35V13.81C27.42,13.62,27.26,13.46,27.07,13.46z M18.41,22.47v-3.8h3.81v3.81h-3.81V22.47z M22.21,23.17
	v3.81h-3.8v-3.81H22.21z M13.9,18.67h3.81v3.81H13.9V18.67z M18.41,17.97v-3.81h3.81v3.81H18.41z M22.91,18.67h3.81v3.81h-3.81
	V18.67z M26.72,17.97h-3.81v-3.81h3.48c0.18,0,0.32,0.15,0.32,0.32v3.49H26.72z M17.71,14.16v3.81H13.9v-3.48
	c0-0.18,0.15-0.32,0.32-0.32h3.49V14.16z M13.9,23.17h3.81v3.81h-3.48c-0.18,0-0.32-0.15-0.32-0.32v-3.49H13.9z M22.91,26.98v-3.81
	h3.81v3.48c0,0.18-0.15,0.32-0.32,0.32h-3.49V26.98z"/>
<g class="st2">
	<path class="st3" d="M24.26,11.68h-7.92c-0.9,0-1.63,0.73-1.63,1.63v14.74c0,0.9,0.73,1.63,1.63,1.63h7.92
		c0.9,0,1.63-0.73,1.63-1.63V13.31C25.89,12.41,25.16,11.68,24.26,11.68z M20.3,28.69c-0.54,0-0.98-0.44-0.98-0.98
		s0.44-0.98,0.98-0.98c0.54,0,0.98,0.44,0.98,0.98S20.84,28.69,20.3,28.69z M25.05,25.4c0,0.46-0.37,0.83-0.83,0.83h-7.84
		c-0.46,0-0.83-0.37-0.83-0.83V14.37c0-0.46,0.37-0.83,0.83-0.83h7.85c0.46,0,0.83,0.37,0.83,0.83V25.4H25.05z"/>
</g>
<path class="st4" d="M27,13.25H13.6c-0.77,0-1.4,0.61-1.4,1.35v8.86c0,0.74,0.63,1.35,1.4,1.35h5.82v2h-2.73
	c-0.13,0-0.23,0.1-0.23,0.23v0.84c0,0.13,0.1,0.23,0.23,0.23h7.22c0.13,0,0.23-0.1,0.23-0.23v-0.84c0-0.13-0.1-0.23-0.23-0.23h-2.73
	v-2H27c0.77,0,1.4-0.61,1.4-1.35V14.6C28.4,13.86,27.77,13.25,27,13.25z M27.34,22.7c0,0.16-0.15,0.29-0.34,0.29H13.6
	c-0.19,0-0.34-0.13-0.34-0.29v-8.1c0-0.16,0.15-0.29,0.34-0.29H27c0.19,0,0.34,0.13,0.34,0.29C27.34,14.6,27.34,22.7,27.34,22.7z"/>
</svg>
