<?xml version="1.0" encoding="utf-8"?>
<!-- Generator: Adobe Illustrator 22.1.0, SVG Export Plug-In . SVG Version: 6.00 Build 0)  -->
<svg version="1.1" id="레이어_1" xmlns="http://www.w3.org/2000/svg" xmlns:xlink="http://www.w3.org/1999/xlink" x="0px"
	 y="0px" viewBox="0 0 70 70" style="enable-background:new 0 0 70 70;" xml:space="preserve">
<style type="text/css">
	.st0{display:none;fill:#A48B78;}
	.st1{fill:#522238;}
	.st2{fill:#FFFFFF;stroke:#B5B4B5;stroke-width:0.2077;stroke-miterlimit:10;}
	.st3{fill:#2A4654;}
	.st4{fill:#48B09F;}
	.st5{fill:#F0B831;}
	.st6{fill:#193544;}
	.st7{fill:#F1A136;}
	.st8{fill:#DBB54A;}
	.st9{fill:none;stroke:#F2B01D;stroke-width:1.5883;}
	.st10{fill:#F3BA1E;}
	.st11{fill:none;stroke:#D5A41C;stroke-width:1.5883;}
	.st12{fill:#D5A41C;}
	.st13{fill:#E5E5E5;stroke:#CCD2D2;stroke-width:3.1767;}
	.st14{fill:#F3B51E;}
	.st15{fill:none;stroke:#D3D3D3;stroke-width:5.2945;}
	.st16{fill:#37444A;}
	.st17{fill:#FFFFFF;stroke:#37444A;stroke-width:1.5883;}
	.st18{fill:none;stroke:#37444A;stroke-width:1.5883;}
	.st19{fill:#FFFFFF;}
	.st20{fill:none;stroke:#F08D2A;stroke-width:5.2945;}
	.st21{fill:#F9DCA7;}
	.st22{fill:#EA5019;}
	.st23{fill:#F0BC39;}
	.st24{fill:#BF8F14;}
	.st25{fill:none;stroke:#F9DCA7;stroke-width:1.0589;}
	.st26{fill:#213D4C;}
	.st27{fill:#172F39;}
	.st28{fill:#E6E6E5;stroke:#D3D3D3;stroke-width:3.1767;}
	.st29{fill:#DB4C49;}
	.st30{fill:#DA4D4B;}
	.st31{fill:#DEA82B;}
	.st32{fill:#EEEEEE;}
	.st33{fill:none;stroke:#F0B831;stroke-width:1.5883;}
	.st34{fill:#F0B924;}
	.st35{fill:#CDD4E5;}
	.st36{fill:#EA511A;}
	.st37{fill:none;stroke:#FFFFFF;stroke-width:4.3155;stroke-miterlimit:10;}
	.st38{fill:none;stroke:#F9F9F7;stroke-width:4.3155;stroke-miterlimit:10;}
	.st39{fill:none;stroke:#F9F9F7;stroke-width:4.3684;stroke-miterlimit:10;}
	.st40{fill:#D34492;}
	.st41{fill:#D94E28;}
	.st42{fill:#E4642C;}
	.st43{fill:#EBEAEA;}
	.st44{fill:#12539B;}
	.st45{fill:#4191C7;}
	.st46{fill:url(#SVGID_1_);}
	.st47{fill:url(#SVGID_2_);}
	.st48{fill:url(#SVGID_3_);}
	.st49{opacity:5.000000e-02;}
	.st50{fill:#231815;}
	.st51{fill:url(#SVGID_4_);}
	.st52{opacity:5.000000e-02;fill:#231815;}
	.st53{fill:none;stroke:#2A4654;stroke-width:5.0773;stroke-linecap:round;}
	.st54{fill:#E6E6E5;stroke:#2A4654;stroke-width:3.2197;}
	.st55{fill:#E6E6E5;}
	.st56{fill:#1AAC94;}
	.st57{fill:url(#SVGID_5_);}
	.st58{fill:url(#SVGID_6_);}
	.st59{fill:url(#SVGID_7_);}
	.st60{fill:url(#SVGID_8_);}
	.st61{fill:#EAD92D;}
	.st62{fill:none;stroke:#B5B4B5;stroke-width:0.2077;stroke-miterlimit:10;}
	.st63{fill:#294553;}
	.st64{fill:#338D8D;}
	.st65{fill:#2A2969;}
	.st66{fill:#4F3D1B;}
	.st67{fill:#92BEE6;}
	.st68{fill:#F4B64C;}
	.st69{fill:none;stroke:#FFFFFF;stroke-width:2;}
	.st70{fill:none;stroke:#FFFFFF;stroke-miterlimit:10;}
	.st71{display:none;fill:#E60012;}
</style>
<rect x="-119.9" y="-25.3" class="st0" width="521.5" height="218.5"/>
<g>
	<g>
		<path class="st19" d="M26.5,15.9h-1.7v-1.9h-1.9v5.6h1.9v-1.9h1.7v1.9h1.9v-5.6h-1.9V15.9z M39.8,14.1h-0.2L38.4,16l-1.2-1.9h-0.1
			h-1.7h-0.1v5.6h1.8v-2.8l1.3,2l0,0l0,0l0,0l0,0l1.3-2.1v2.9h1.8v-5.6h-0.1H39.8z M29.2,16h1.7v3.7h1.9V16h1.7v-1.9h-5.2V16z
			 M44.5,17.8v-3.7h-1.9v5.6H43h1.4h2.6v-1.9H44.5z"/>
	</g>
	<g>
		<polygon class="st19" points="44.4,28.4 25.6,28.4 26.7,39.8 26.7,39.7 39.5,39.7 39.1,44.5 35,45.7 30.9,44.5 30.6,41.6 
			26.9,41.6 27.4,47.4 35,49.5 42.6,47.4 43.7,36 30.1,36 29.7,32.2 44,32.2 		"/>
	</g>
	<path class="st19" d="M68,2v66H2V2H68 M70,0H0v70h70V0L70,0z"/>
	<g>
		<path class="st19" d="M35,56.9l-13-3.7l-2.9-31.9h31.8L48,53.3L35,56.9z M23.8,51.8L35,54.9l11.2-3.2l2.6-28.6H21.2L23.8,51.8z"/>
	</g>
</g>
<rect x="-119.9" class="st71" width="521.5" height="2"/>
<rect x="-119.9" y="68" class="st71" width="521.5" height="2"/>
</svg>
