<?xml version="1.0" encoding="utf-8"?>
<!-- Generator: Adobe Illustrator 22.1.0, SVG Export Plug-In . SVG Version: 6.00 Build 0)  -->
<svg version="1.1" id="레이어_1" xmlns="http://www.w3.org/2000/svg" xmlns:xlink="http://www.w3.org/1999/xlink" x="0px"
	 y="0px" viewBox="0 0 70 70" style="enable-background:new 0 0 70 70;" xml:space="preserve">
<style type="text/css">
	.st0{display:none;fill:#A48B78;}
	.st1{fill:#522238;}
	.st2{fill:#FFFFFF;stroke:#B5B4B5;stroke-width:0.2077;stroke-miterlimit:10;}
	.st3{fill:#2A4654;}
	.st4{fill:#48B09F;}
	.st5{fill:#F0B831;}
	.st6{fill:#193544;}
	.st7{fill:#F1A136;}
	.st8{fill:#DBB54A;}
	.st9{fill:none;stroke:#F2B01D;stroke-width:1.5883;}
	.st10{fill:#F3BA1E;}
	.st11{fill:none;stroke:#D5A41C;stroke-width:1.5883;}
	.st12{fill:#D5A41C;}
	.st13{fill:#E5E5E5;stroke:#CCD2D2;stroke-width:3.1767;}
	.st14{fill:#F3B51E;}
	.st15{fill:none;stroke:#D3D3D3;stroke-width:5.2945;}
	.st16{fill:#37444A;}
	.st17{fill:#FFFFFF;stroke:#37444A;stroke-width:1.5883;}
	.st18{fill:none;stroke:#37444A;stroke-width:1.5883;}
	.st19{fill:#FFFFFF;}
	.st20{fill:none;stroke:#F08D2A;stroke-width:5.2945;}
	.st21{fill:#F9DCA7;}
	.st22{fill:#EA5019;}
	.st23{fill:#F0BC39;}
	.st24{fill:#BF8F14;}
	.st25{fill:none;stroke:#F9DCA7;stroke-width:1.0589;}
	.st26{fill:#213D4C;}
	.st27{fill:#172F39;}
	.st28{fill:#E6E6E5;stroke:#D3D3D3;stroke-width:3.1767;}
	.st29{fill:#DB4C49;}
	.st30{fill:#DA4D4B;}
	.st31{fill:#DEA82B;}
	.st32{fill:#EEEEEE;}
	.st33{fill:none;stroke:#F0B831;stroke-width:1.5883;}
	.st34{fill:#F0B924;}
	.st35{fill:#CDD4E5;}
	.st36{fill:#EA511A;}
	.st37{fill:none;stroke:#FFFFFF;stroke-width:4.3155;stroke-miterlimit:10;}
	.st38{fill:none;stroke:#F9F9F7;stroke-width:4.3155;stroke-miterlimit:10;}
	.st39{fill:none;stroke:#F9F9F7;stroke-width:4.3684;stroke-miterlimit:10;}
	.st40{fill:#D34492;}
	.st41{fill:#D94E28;}
	.st42{fill:#E4642C;}
	.st43{fill:#EBEAEA;}
	.st44{fill:#12539B;}
	.st45{fill:#4191C7;}
	.st46{fill:url(#SVGID_1_);}
	.st47{fill:url(#SVGID_2_);}
	.st48{fill:url(#SVGID_3_);}
	.st49{opacity:5.000000e-02;}
	.st50{fill:#231815;}
	.st51{fill:url(#SVGID_4_);}
	.st52{opacity:5.000000e-02;fill:#231815;}
	.st53{fill:none;stroke:#2A4654;stroke-width:5.0773;stroke-linecap:round;}
	.st54{fill:#E6E6E5;stroke:#2A4654;stroke-width:3.2197;}
	.st55{fill:#E6E6E5;}
	.st56{fill:#1AAC94;}
	.st57{fill:url(#SVGID_5_);}
	.st58{fill:url(#SVGID_6_);}
	.st59{fill:url(#SVGID_7_);}
	.st60{fill:url(#SVGID_8_);}
	.st61{fill:#EAD92D;}
	.st62{fill:none;stroke:#B5B4B5;stroke-width:0.2077;stroke-miterlimit:10;}
	.st63{fill:#294553;}
	.st64{fill:#338D8D;}
	.st65{fill:#2A2969;}
	.st66{fill:#4F3D1B;}
	.st67{fill:#92BEE6;}
	.st68{fill:#F4B64C;}
	.st69{fill:none;stroke:#FFFFFF;stroke-width:2;}
	.st70{fill:none;stroke:#FFFFFF;stroke-miterlimit:10;}
	.st71{display:none;fill:#E60012;}
</style>
<rect x="-323.9" y="-25.3" class="st0" width="521.5" height="218.5"/>
<g>
	<g>
		<g>
			<path class="st19" d="M16.1,54c0-12.6,0-25.3,0-37.9c12.6,0,25.2,0,37.9,0c0,12.6,0,25.3,0,37.9C41.3,54,28.7,54,16.1,54z
				 M47.2,37.9c0.9-0.6,1.8-1.2,2.8-1.8c-0.8-1.4-1.9-2.3-3.3-2.7c-1-0.3-2.1-0.3-3.2-0.1c-2.1,0.4-3.6,1.9-3.8,4.1
				c-0.2,2,0.5,3.6,2.1,4.7c0.9,0.7,2,1.1,3.1,1.6c0.6,0.3,1.3,0.6,1.9,1c0.3,0.2,0.5,0.5,0.6,0.8c0.3,0.9-0.2,1.7-1.2,2
				c-1.4,0.5-3,0-4-1.2c-0.2-0.3-0.4-0.5-0.6-0.8c-0.9,0.5-1.8,1.1-2.8,1.6c-0.2,0.1-0.1,0.2,0,0.3c0.6,1,1.3,1.8,2.3,2.4
				c1.9,1.1,3.9,1.2,6,0.8c1-0.2,2-0.7,2.7-1.5c0.8-0.9,1.2-1.9,1.2-3.1c0-1.2-0.2-2.3-0.9-3.3c-0.6-0.8-1.4-1.4-2.3-1.8
				c-1-0.5-1.9-0.9-2.9-1.3c-0.4-0.2-0.9-0.5-1.2-0.8c-0.8-0.8-0.5-2.1,0.6-2.5c0.8-0.3,1.6-0.1,2.3,0.5
				C46.7,37.2,46.9,37.5,47.2,37.9z M28.9,45.9c-0.9,0.6-1.8,1.1-2.8,1.7c-0.2,0.1-0.1,0.2,0,0.3c0.6,1.3,1.6,2.2,2.9,2.7
				c1.1,0.4,2.3,0.5,3.4,0.3c0.9-0.1,1.8-0.4,2.5-1c1.2-1,1.7-2.4,1.7-3.9c0-4.1,0-8.2,0-12.3c0-0.1,0-0.2,0-0.3c-0.1,0-0.2,0-0.3,0
				c-1,0-1.9,0-2.9,0c-0.4,0-0.4,0-0.4,0.4c0,3.9,0,7.8,0,11.7c0,0.2,0,0.5,0,0.7c-0.1,0.8-0.5,1.4-1.3,1.5
				c-0.9,0.2-1.7-0.1-2.3-0.9C29.3,46.5,29.1,46.2,28.9,45.9z"/>
		</g>
	</g>
	<path class="st19" d="M68,2v66H2V2H68 M70,0H0v70h70V0L70,0z"/>
</g>
<rect x="-323.9" class="st71" width="521.5" height="2"/>
<rect x="-323.9" y="68" class="st71" width="521.5" height="2"/>
</svg>
