<?xml version="1.0" encoding="utf-8"?>
<!-- Generator: Adobe Illustrator 23.1.1, SVG Export Plug-In . SVG Version: 6.00 Build 0)  -->
<svg version="1.1" id="Layer_2" xmlns="http://www.w3.org/2000/svg" xmlns:xlink="http://www.w3.org/1999/xlink" x="0px" y="0px"
	 viewBox="0 0 76.29 176.75" style="enable-background:new 0 0 76.29 176.75;" xml:space="preserve">
<style type="text/css">
	.st0{fill:#FC6265;}
	.st1{fill:#242222;}
</style>
<polygon class="st0" points="74.61,174.04 37.97,142.62 1.33,174.04 1.33,1.2 74.61,1.2 "/>
<g>
	<path class="st1" d="M32.73,116.77v-6.39h1.72v4.31h2.7v-3.68h1.74v3.68h4.2v2.07H32.73z"/>
	<path class="st1" d="M35.25,109.22v-1.68l1.39-0.14v-0.05c-1.02-0.58-1.58-1.42-1.58-2.23c0-0.43,0.07-0.69,0.17-0.92l1.78,0.36
		c-0.08,0.27-0.13,0.49-0.13,0.81c0,0.62,0.41,1.36,1.54,1.81h4.68v2.05H35.25z"/>
	<path class="st1" d="M39.18,103.68c-2.62,0-4.13-1.81-4.13-3.77s1.51-3.77,4.13-3.77c2.59,0,4.1,1.81,4.1,3.77
		S41.78,103.68,39.18,103.68z M39.18,98.24c-1.48,0-2.45,0.6-2.45,1.67s0.97,1.67,2.45,1.67c1.47,0,2.42-0.6,2.42-1.67
		S40.65,98.24,39.18,98.24z"/>
	<path class="st1" d="M35.25,94.44v-1.68l1.04-0.14v-0.06c-0.67-0.69-1.23-1.48-1.23-2.55c0-1.69,1.18-2.42,3.15-2.42h4.89v2.06
		h-4.64c-1.2,0-1.64,0.34-1.64,1.11c0,0.64,0.31,1.05,0.88,1.64h5.39v2.05H35.25z"/>
	<path class="st1" d="M40.35,85.26h-3.47v1.11h-1.53l-0.1-1.21l-2.1-0.24V83.2h2.1v-1.93h1.62v1.93h3.47c0.9,0,1.32-0.36,1.32-1.06
		c0-0.25-0.08-0.56-0.17-0.77l1.5-0.34c0.14,0.42,0.29,0.97,0.29,1.65C43.29,84.54,42.11,85.26,40.35,85.26z"/>
	<path class="st1" d="M38.34,80.28v-3.82h1.47v3.82H38.34z"/>
	<path class="st1" d="M39.18,74.78c-2.55,0-4.13-1.78-4.13-3.66c0-2.16,1.58-3.28,3.75-3.28c0.38,0,0.76,0.04,0.94,0.1v4.83
		c1.29-0.17,1.96-1.01,1.96-2.17c0-0.64-0.2-1.2-0.55-1.77l1.26-0.7c0.53,0.77,0.87,1.76,0.87,2.75
		C43.29,73.07,41.76,74.78,39.18,74.78z M38.39,69.61c-1.06,0-1.74,0.48-1.74,1.48c0,0.83,0.59,1.55,1.74,1.71V69.61z"/>
	<path class="st1" d="M35.25,66.14v-1.68l1.04-0.14v-0.06c-0.67-0.69-1.23-1.48-1.23-2.55c0-1.69,1.18-2.42,3.15-2.42h4.89v2.06
		h-4.64c-1.2,0-1.64,0.34-1.64,1.11c0,0.64,0.31,1.05,0.88,1.64h5.39v2.05H35.25z"/>
	<path class="st1" d="M39.18,57.61c-2.56,0-4.13-1.6-4.13-3.29c0-0.88,0.34-1.43,0.85-1.99l-1.23,0.08h-2.76v-2.06h11.18v1.67
		l-0.81,0.17v0.04c0.56,0.57,1.01,1.36,1.01,2.17C43.29,56.35,41.75,57.61,39.18,57.61z M40.78,52.42h-3.45
		c-0.43,0.48-0.59,0.97-0.59,1.46c0,0.88,0.84,1.62,2.41,1.62c1.62,0,2.44-0.59,2.44-1.62C41.59,53.33,41.37,52.87,40.78,52.42z"/>
</g>
</svg>
