<?xml version="1.0" encoding="utf-8"?>
<!-- Generator: Adobe Illustrator 24.1.2, SVG Export Plug-In . SVG Version: 6.00 Build 0)  -->
<svg version="1.1" id="Layer_1" xmlns="http://www.w3.org/2000/svg" xmlns:xlink="http://www.w3.org/1999/xlink" x="0px" y="0px"
	 viewBox="0 0 600 216.62" style="enable-background:new 0 0 600 216.62;" xml:space="preserve">
<g>
	<path d="M31.85,99.62c-2.85,0-5.68-0.39-8.49-1.16c-2.81-0.77-5.48-1.97-8-3.6c-4.4-2.85-7.82-6.54-10.26-11.06
		c-2.44-4.52-3.67-9.47-3.67-14.84h20.65c0,2.44,0.53,4.34,1.59,5.68c1.06,1.34,1.99,2.26,2.81,2.75c1.47,0.98,3.05,1.51,4.76,1.59
		c1.71,0.08,3.38-0.24,5.01-0.98c1.14-0.49,2.06-1.1,2.75-1.83c0.69-0.73,1.22-1.44,1.59-2.14c0.37-0.69,0.59-1.36,0.67-2.02
		c0.08-0.65,0.12-1.18,0.12-1.59c0-0.41-0.04-0.94-0.12-1.59c-0.08-0.65-0.31-1.34-0.67-2.08c-0.37-0.73-0.9-1.45-1.59-2.14
		c-0.69-0.69-1.61-1.32-2.75-1.89c-0.9-0.41-1.85-0.77-2.87-1.1c-1.02-0.32-2.1-0.69-3.24-1.1c-2.04-0.65-4.15-1.38-6.35-2.2
		c-2.2-0.81-4.4-1.91-6.6-3.3c-2.85-1.79-5.25-4.03-7.21-6.72c-1.95-2.69-3.36-5.58-4.21-8.67c-0.86-3.09-1.14-6.29-0.86-9.59
		c0.28-3.3,1.2-6.45,2.75-9.47c1.47-2.77,3.3-5.17,5.5-7.21c2.2-2.04,4.64-3.64,7.33-4.83c2.69-1.18,5.58-1.89,8.67-2.14
		c3.09-0.24,6.23,0.04,9.41,0.85c3.09,0.73,5.88,1.89,8.4,3.48c2.51,1.59,4.68,3.5,6.5,5.74c1.82,2.24,3.22,4.75,4.19,7.51
		c0.97,2.77,1.46,5.66,1.46,8.67H38.57c0-1.87-0.59-3.18-1.77-3.91c-1.18-0.73-2.22-1.22-3.12-1.47c-0.16,0-0.55-0.06-1.16-0.18
		c-0.61-0.12-1.3-0.12-2.08,0c-0.77,0.12-1.57,0.41-2.38,0.85c-0.81,0.45-1.47,1.16-1.95,2.14c-0.65,1.3-0.77,2.67-0.37,4.09
		c0.41,1.43,1.22,2.55,2.44,3.36c1.14,0.65,2.4,1.24,3.79,1.77c1.38,0.53,2.85,1.04,4.4,1.53c1.38,0.41,2.79,0.86,4.21,1.34
		c1.42,0.49,2.86,1.06,4.32,1.71c5.34,2.44,9.53,6.03,12.57,10.75c3.04,4.72,4.55,9.98,4.55,15.76c0,5.7-1.52,10.92-4.55,15.64
		c-3.04,4.72-7.23,8.31-12.57,10.75c-2.11,0.98-4.26,1.69-6.46,2.14C36.24,99.4,34.05,99.62,31.85,99.62z"/>
	<path d="M104.9,97.91c-4.56,0-8.88-0.83-12.95-2.5c-4.07-1.67-7.7-4.05-10.87-7.15c-3.26-3.26-5.76-6.92-7.51-11
		c-1.75-4.07-2.67-8.43-2.75-13.07V8.12h20.65v55.95c0,3.58,1.34,6.72,4.03,9.41c2.69,2.53,5.86,3.79,9.53,3.79
		c1.79,0,3.5-0.37,5.13-1.1c1.63-0.73,3.05-1.71,4.28-2.93s2.16-2.65,2.81-4.28c0.65-1.63,0.98-3.38,0.98-5.25V8.12h20.65v55.46
		c0.08,4.64-0.75,9.04-2.5,13.19c-1.75,4.15-4.15,7.78-7.21,10.87c-3.05,3.1-6.64,5.56-10.75,7.39c-4.11,1.83-8.49,2.79-13.13,2.87
		H104.9z"/>
	<path d="M216.44,8.24h20.65v89.67h-20.65V64.07h-25.9v33.84h-20.65V8.24h20.65v35.18h25.9V8.24z"/>
	<path d="M261.39,97.91l10.38-25.41L241.11,7.51h22.84l18.45,38.97l15.76-38.97h22.36l-36.77,90.4H261.39z"/>
	<path d="M366.82,97.91c-4.56,0-8.88-0.83-12.95-2.5c-4.07-1.67-7.7-4.05-10.87-7.15c-3.26-3.26-5.76-6.92-7.51-11
		c-1.75-4.07-2.67-8.43-2.75-13.07V8.12h20.65v55.95c0,3.58,1.34,6.72,4.03,9.41c2.69,2.53,5.86,3.79,9.53,3.79
		c1.79,0,3.5-0.37,5.13-1.1c1.63-0.73,3.05-1.71,4.28-2.93s2.16-2.65,2.81-4.28c0.65-1.63,0.98-3.38,0.98-5.25V8.12h20.65v55.46
		c0.08,4.64-0.75,9.04-2.51,13.19c-1.75,4.15-4.15,7.78-7.21,10.87c-3.05,3.1-6.64,5.56-10.75,7.39c-4.11,1.83-8.49,2.79-13.13,2.87
		H366.82z"/>
	<path d="M464.8,8.24h20.65v89.67h-22.36l-29.32-52.29v52.29h-20.65V8.49h22.48l29.2,52.16V8.24z"/>
</g>
<g>
	<path d="M377.61,172.31l14.74-16.59l6.26,5.56c1.1,0.98,1.9,1.78,2.38,2.4c0.69,0.86,1.15,1.73,1.36,2.6
		c0.21,0.87,0.18,1.8-0.09,2.78s-0.78,1.89-1.51,2.71c-1.25,1.41-2.76,2.21-4.53,2.38c-1.77,0.18-3.82-0.77-6.17-2.86l-4.25-3.78
		l-5.99,6.75L377.61,172.31z M387.54,165.56l4.29,3.81c1.42,1.26,2.66,1.89,3.73,1.89c1.07,0,2.02-0.48,2.88-1.44
		c0.62-0.69,0.97-1.44,1.06-2.25c0.09-0.81-0.08-1.54-0.52-2.21c-0.28-0.43-0.92-1.08-1.92-1.97l-4.24-3.77L387.54,165.56z"/>
	<path d="M419.47,188.87c1.24-3.47,3.14-5.85,5.7-7.15c2.56-1.3,5.32-1.42,8.27-0.37c1.93,0.69,3.5,1.77,4.73,3.25
		c1.22,1.47,1.94,3.18,2.17,5.12c0.22,1.94-0.04,3.96-0.78,6.05c-0.76,2.12-1.86,3.86-3.31,5.23c-1.45,1.37-3.12,2.2-4.99,2.5
		c-1.88,0.3-3.72,0.13-5.54-0.52c-1.97-0.7-3.56-1.8-4.77-3.31s-1.92-3.22-2.13-5.15C418.59,192.59,418.81,190.71,419.47,188.87z
		 M422.3,189.93c-0.9,2.52-0.93,4.75-0.09,6.68c0.84,1.93,2.28,3.26,4.32,3.99c2.08,0.74,4.06,0.62,5.92-0.36
		c1.87-0.98,3.28-2.82,4.24-5.51c0.61-1.7,0.85-3.29,0.73-4.76c-0.12-1.47-0.61-2.76-1.47-3.85c-0.86-1.09-1.98-1.89-3.36-2.38
		c-1.96-0.7-3.88-0.63-5.77,0.21S423.43,186.79,422.3,189.93z"/>
	<path d="M466.59,210.27l-1.18-22.16l9.83-0.53c1.98-0.11,3.49,0.01,4.54,0.36c1.05,0.34,1.91,1,2.58,1.98s1.04,2.07,1.1,3.29
		c0.08,1.57-0.35,2.92-1.31,4.06c-0.96,1.13-2.5,1.9-4.61,2.31c0.79,0.33,1.4,0.67,1.83,1.01c0.9,0.74,1.76,1.68,2.59,2.82
		l4.18,5.83l-3.69,0.2l-3.18-4.46c-0.93-1.28-1.69-2.26-2.28-2.94c-0.59-0.68-1.11-1.14-1.57-1.4c-0.45-0.26-0.91-0.43-1.37-0.52
		c-0.34-0.05-0.88-0.06-1.64-0.02l-3.4,0.18l0.53,9.84L466.59,210.27z M468.86,197.73l6.3-0.34c1.34-0.07,2.38-0.27,3.12-0.58
		c0.74-0.32,1.29-0.79,1.65-1.42c0.36-0.63,0.52-1.3,0.48-2.02c-0.05-1.05-0.48-1.89-1.28-2.52c-0.8-0.63-2.02-0.91-3.66-0.82
		l-7.02,0.37L468.86,197.73z"/>
	<path d="M519.33,199.51l-7.94-17.89l-6.68,2.97l-1.06-2.39l16.08-7.14l1.06,2.39l-6.71,2.98l7.94,17.89L519.33,199.51z"/>
	<path d="M553.18,178.33l-15.54-15.85L548.34,152l1.83,1.87l-8.59,8.43l4.81,4.91l7.44-7.29l1.83,1.87l-7.44,7.29l7.06,7.2
		L553.18,178.33z"/>
	<path d="M571.35,139.26c-3.37-1.5-5.6-3.58-6.69-6.23c-1.1-2.66-1.01-5.41,0.26-8.27c0.83-1.87,2.04-3.36,3.6-4.46
		c1.56-1.1,3.32-1.69,5.27-1.77c1.95-0.08,3.94,0.34,5.97,1.24c2.06,0.92,3.71,2.15,4.96,3.71c1.25,1.55,1.96,3.28,2.11,5.17
		c0.16,1.89-0.16,3.72-0.94,5.48c-0.85,1.91-2.07,3.41-3.67,4.5c-1.59,1.09-3.36,1.67-5.3,1.73
		C574.99,140.42,573.13,140.06,571.35,139.26z M572.63,136.51c2.44,1.09,4.66,1.29,6.65,0.6c1.99-0.69,3.43-2.02,4.31-4
		c0.9-2.02,0.93-4,0.09-5.94c-0.84-1.94-2.56-3.49-5.17-4.65c-1.65-0.74-3.22-1.1-4.7-1.09c-1.48,0.01-2.8,0.4-3.95,1.17
		c-1.16,0.77-2.03,1.83-2.63,3.16c-0.85,1.9-0.92,3.82-0.23,5.78C567.7,133.5,569.58,135.15,572.63,136.51z"/>
	<path d="M596.13,94.38l-22.17-1.02l0.13-2.93l19.56,0.9l0.5-10.92l2.62,0.12L596.13,94.38z"/>
	<path d="M592.71,50.98l-21.47,5.63l-0.75-2.84l21.47-5.63L592.71,50.98z"/>
	<path d="M571.83,25.68c-3.06,2.05-6.01,2.83-8.84,2.34c-2.83-0.49-5.12-2.03-6.86-4.63c-1.14-1.7-1.76-3.51-1.86-5.42
		c-0.1-1.91,0.34-3.71,1.31-5.4c0.98-1.69,2.39-3.15,4.23-4.39c1.87-1.25,3.8-1.99,5.78-2.22c1.98-0.23,3.82,0.09,5.5,0.97
		c1.68,0.88,3.06,2.12,4.13,3.72c1.16,1.74,1.78,3.57,1.85,5.5c0.08,1.93-0.38,3.73-1.36,5.41
		C574.75,23.22,573.45,24.6,571.83,25.68z M570.19,23.14c2.22-1.49,3.57-3.26,4.06-5.31c0.48-2.05,0.12-3.98-1.09-5.78
		c-1.23-1.84-2.89-2.92-4.97-3.24c-2.09-0.32-4.32,0.31-6.69,1.9c-1.5,1-2.64,2.13-3.42,3.39c-0.78,1.26-1.15,2.58-1.12,3.97
		c0.04,1.39,0.46,2.69,1.28,3.91c1.16,1.73,2.74,2.82,4.76,3.27C565.01,25.7,567.41,25,570.19,23.14z"/>
</g>
</svg>
