<?xml version="1.0" encoding="utf-8"?>
<!-- Generator: Adobe Illustrator 24.1.2, SVG Export Plug-In . SVG Version: 6.00 Build 0)  -->
<svg version="1.1" id="Layer_1" xmlns="http://www.w3.org/2000/svg" xmlns:xlink="http://www.w3.org/1999/xlink" x="0px" y="0px"
	 viewBox="0 0 595.28 841.89" style="enable-background:new 0 0 595.28 841.89;" xml:space="preserve">
<g>
	<path d="M158.74,385.29c-4.02,0-7.39,1.3-10.1,3.9c-2.71,2.6-4.06,6.56-4.06,11.87c0,2.04,0.27,3.84,0.8,5.39
		c0.54,1.56,1.29,2.95,2.25,4.19c0.91,1.23,1.96,2.35,3.14,3.34c1.18,0.99,2.39,1.92,3.62,2.78c1.18,0.91,2.36,1.82,3.54,2.74
		c1.18,0.91,2.23,1.88,3.14,2.9c0.97,1.02,1.73,2.15,2.29,3.38s0.84,2.66,0.84,4.27c0,3.38-0.63,5.73-1.89,7.04
		c-1.26,1.32-2.78,1.97-4.55,1.97c-1.61,0-3.03-0.7-4.27-2.09c-1.24-1.39-1.85-4.02-1.85-7.89v-1.93h-8.05
		c0,1.45,0.07,3.25,0.2,5.39c0.13,2.15,0.63,4.19,1.49,6.12c0.8,1.99,2.13,3.68,3.98,5.07c1.85,1.39,4.47,2.09,7.85,2.09
		c1.98,0,3.89-0.25,5.71-0.76s3.43-1.41,4.83-2.7c1.4-1.23,2.51-2.88,3.34-4.95c0.83-2.06,1.25-4.63,1.25-7.69
		c0-2.2-0.28-4.13-0.84-5.79c-0.56-1.66-1.33-3.14-2.29-4.43c-0.91-1.34-1.96-2.51-3.14-3.5c-1.18-0.99-2.36-1.94-3.54-2.86
		c-1.23-0.91-2.44-1.8-3.62-2.66c-1.18-0.86-2.23-1.77-3.14-2.74c-0.97-1.02-1.72-2.15-2.25-3.38c-0.54-1.23-0.8-2.66-0.8-4.27
		c0-3.22,0.59-5.37,1.77-6.44c1.18-1.07,2.42-1.61,3.7-1.61c2.25,0,3.83,0.9,4.75,2.7c0.91,1.8,1.37,4.23,1.37,7.28h8.05
		c0.16-5.96-0.97-10.23-3.38-12.84C166.47,386.59,163.09,385.29,158.74,385.29z"/>
	<path d="M205.3,425.21c0,3.01-0.12,5.42-0.36,7.24c-0.24,1.83-0.6,3.22-1.09,4.19c-0.48,0.97-1.06,1.61-1.73,1.93
		c-0.67,0.32-1.44,0.48-2.29,0.48c-0.91,0-1.7-0.16-2.37-0.48c-0.67-0.32-1.25-0.97-1.73-1.93c-0.48-0.97-0.83-2.36-1.05-4.19
		c-0.21-1.82-0.32-4.24-0.32-7.24v-39.28h-7.73v38.96c0,4.02,0.25,7.38,0.76,10.06c0.51,2.68,1.33,4.83,2.46,6.44
		c1.07,1.61,2.44,2.75,4.11,3.42c1.66,0.67,3.62,1.01,5.88,1.01s4.2-0.34,5.84-1.01c1.64-0.67,3.02-1.81,4.14-3.42
		c1.07-1.61,1.88-3.75,2.42-6.44c0.54-2.68,0.8-6.04,0.8-10.06v-38.96h-7.73V425.21z"/>
	<polygon points="263.05,411.69 252.43,411.69 252.43,385.93 244.38,385.93 244.38,444.85 252.43,444.85 252.43,418.13 
		263.05,418.13 263.05,444.85 271.1,444.85 271.1,385.93 263.05,385.93 	"/>
	<polygon points="298.99,411.69 290.94,385.93 282.89,385.93 294.8,421.35 294.8,444.85 302.85,444.85 302.85,421.35 315.08,385.93 
		307.36,385.93 	"/>
	<path d="M346.18,425.21c0,3.01-0.12,5.42-0.36,7.24c-0.24,1.83-0.6,3.22-1.09,4.19c-0.48,0.97-1.06,1.61-1.73,1.93
		c-0.67,0.32-1.44,0.48-2.29,0.48c-0.91,0-1.7-0.16-2.37-0.48c-0.67-0.32-1.25-0.97-1.73-1.93c-0.48-0.97-0.83-2.36-1.05-4.19
		c-0.21-1.82-0.32-4.24-0.32-7.24v-39.28h-7.73v38.96c0,4.02,0.25,7.38,0.76,10.06c0.51,2.68,1.33,4.83,2.46,6.44
		c1.07,1.61,2.44,2.75,4.11,3.42c1.66,0.67,3.62,1.01,5.88,1.01s4.2-0.34,5.84-1.01c1.64-0.67,3.02-1.81,4.14-3.42
		c1.07-1.61,1.88-3.75,2.42-6.44c0.54-2.68,0.8-6.04,0.8-10.06v-38.96h-7.73V425.21z"/>
	<polygon points="388.23,385.93 388.23,426.5 376.64,385.93 368.59,385.93 368.59,444.85 375.67,444.85 375.67,403.64 
		387.91,444.85 395.31,444.85 395.31,385.93 	"/>
</g>
</svg>
