<?xml version="1.0" encoding="utf-8"?>
<!-- Generator: Adobe Illustrator 24.1.2, SVG Export Plug-In . SVG Version: 6.00 Build 0)  -->
<svg version="1.1" id="Layer_1" xmlns="http://www.w3.org/2000/svg" xmlns:xlink="http://www.w3.org/1999/xlink" x="0px" y="0px"
	 viewBox="0 0 595.28 841.89" style="enable-background:new 0 0 595.28 841.89;" xml:space="preserve">
<g>
	<path d="M127.41,359.38c-4.02,0-7.39,1.3-10.1,3.9c-2.71,2.6-4.06,6.56-4.06,11.87c0,2.04,0.27,3.84,0.8,5.39
		c0.54,1.56,1.29,2.95,2.25,4.19c0.91,1.23,1.96,2.35,3.14,3.34c1.18,0.99,2.39,1.92,3.62,2.78c1.18,0.91,2.36,1.82,3.54,2.74
		c1.18,0.91,2.23,1.88,3.14,2.9c0.97,1.02,1.73,2.15,2.29,3.38s0.84,2.66,0.84,4.27c0,3.38-0.63,5.73-1.89,7.04
		c-1.26,1.32-2.78,1.97-4.55,1.97c-1.61,0-3.03-0.7-4.27-2.09c-1.24-1.39-1.85-4.02-1.85-7.89v-1.93h-8.05
		c0,1.45,0.07,3.25,0.2,5.39c0.13,2.15,0.63,4.19,1.49,6.12c0.8,1.99,2.13,3.68,3.98,5.07c1.85,1.39,4.47,2.09,7.85,2.09
		c1.98,0,3.89-0.25,5.71-0.76s3.43-1.41,4.83-2.7c1.4-1.23,2.51-2.88,3.34-4.95c0.83-2.06,1.25-4.63,1.25-7.69
		c0-2.2-0.28-4.13-0.84-5.79c-0.56-1.66-1.33-3.14-2.29-4.43c-0.91-1.34-1.96-2.51-3.14-3.5c-1.18-0.99-2.36-1.94-3.54-2.86
		c-1.23-0.91-2.44-1.8-3.62-2.66c-1.18-0.86-2.23-1.77-3.14-2.74c-0.97-1.02-1.72-2.15-2.25-3.38c-0.54-1.23-0.8-2.66-0.8-4.27
		c0-3.22,0.59-5.37,1.77-6.44c1.18-1.07,2.42-1.61,3.7-1.61c2.25,0,3.83,0.9,4.75,2.7c0.91,1.8,1.37,4.23,1.37,7.28h8.05
		c0.16-5.96-0.97-10.23-3.38-12.84C135.14,360.68,131.76,359.38,127.41,359.38z"/>
	<path d="M173.97,399.3c0,3.01-0.12,5.42-0.36,7.24c-0.24,1.83-0.6,3.22-1.09,4.19c-0.48,0.97-1.06,1.61-1.73,1.93
		c-0.67,0.32-1.44,0.48-2.29,0.48c-0.91,0-1.7-0.16-2.37-0.48c-0.67-0.32-1.25-0.97-1.73-1.93c-0.48-0.97-0.83-2.36-1.05-4.19
		c-0.21-1.82-0.32-4.24-0.32-7.24v-39.28h-7.73v38.96c0,4.02,0.25,7.38,0.76,10.06c0.51,2.68,1.33,4.83,2.46,6.44
		c1.07,1.61,2.44,2.75,4.11,3.42c1.66,0.67,3.62,1.01,5.88,1.01s4.2-0.34,5.84-1.01c1.64-0.67,3.02-1.81,4.14-3.42
		c1.07-1.61,1.88-3.75,2.42-6.44c0.54-2.68,0.8-6.04,0.8-10.06v-38.96h-7.73V399.3z"/>
	<polygon points="231.72,385.78 221.1,385.78 221.1,360.02 213.05,360.02 213.05,418.94 221.1,418.94 221.1,392.22 231.72,392.22 
		231.72,418.94 239.77,418.94 239.77,360.02 231.72,360.02 	"/>
	<polygon points="267.65,385.78 259.61,360.02 251.56,360.02 263.47,395.44 263.47,418.94 271.52,418.94 271.52,395.44 
		283.75,360.02 276.02,360.02 	"/>
	<path d="M319.36,415.48c1.07-1.61,1.88-3.75,2.42-6.44c0.54-2.68,0.8-6.04,0.8-10.06v-38.96h-7.73v39.28
		c0,3.01-0.12,5.42-0.36,7.24c-0.24,1.83-0.6,3.22-1.09,4.19c-0.48,0.97-1.06,1.61-1.73,1.93c-0.67,0.32-1.44,0.48-2.29,0.48
		c-0.91,0-1.7-0.16-2.37-0.48c-0.67-0.32-1.25-0.97-1.73-1.93c-0.48-0.97-0.83-2.36-1.05-4.19c-0.21-1.82-0.32-4.24-0.32-7.24
		v-39.28h-7.73v38.96c0,4.02,0.25,7.38,0.76,10.06c0.51,2.68,1.33,4.83,2.45,6.44c1.07,1.61,2.44,2.75,4.11,3.42
		c1.66,0.67,3.62,1.01,5.88,1.01s4.2-0.34,5.84-1.01C316.85,418.23,318.23,417.09,319.36,415.48z"/>
	<polygon points="363.98,360.02 356.9,360.02 356.9,400.59 345.31,360.02 337.26,360.02 337.26,418.94 344.34,418.94 344.34,377.73 
		356.58,418.94 363.98,418.94 	"/>
	<path d="M324.6,458.2c-0.31-0.35-0.81-0.79-1.5-1.33l-3.9-3.05l-8.08,10.34l1.37,1.07l3.28-4.2l2.65,2.07
		c1.46,1.14,2.71,1.63,3.75,1.45c1.04-0.17,1.9-0.7,2.58-1.58c0.4-0.51,0.66-1.06,0.79-1.66c0.13-0.59,0.11-1.14-0.05-1.65
		C325.34,459.18,325.04,458.69,324.6,458.2z M323.32,461.93c-0.47,0.6-1.01,0.92-1.64,0.96c-0.63,0.04-1.38-0.29-2.27-0.98
		l-2.67-2.09l2.89-3.7l2.65,2.07c0.62,0.48,1.02,0.85,1.21,1.09c0.28,0.38,0.41,0.81,0.39,1.28
		C323.83,461.04,323.65,461.49,323.32,461.93z"/>
	<path d="M347.27,469.14c-0.77-0.83-1.74-1.4-2.91-1.74c-1.78-0.51-3.4-0.33-4.86,0.53c-1.46,0.86-2.5,2.34-3.1,4.43
		c-0.32,1.11-0.38,2.23-0.18,3.36c0.2,1.13,0.68,2.12,1.45,2.96s1.75,1.43,2.94,1.77c1.1,0.31,2.19,0.35,3.29,0.1
		c1.1-0.25,2.05-0.8,2.85-1.66c0.81-0.86,1.39-1.93,1.76-3.21c0.36-1.26,0.44-2.46,0.24-3.6
		C348.54,470.94,348.05,469.96,347.27,469.14z M346.79,475.17c-0.47,1.62-1.23,2.76-2.3,3.41c-1.06,0.65-2.22,0.79-3.48,0.43
		c-1.23-0.35-2.13-1.09-2.7-2.2s-0.63-2.42-0.19-3.94c0.54-1.9,1.36-3.13,2.45-3.7c1.08-0.57,2.22-0.68,3.4-0.34
		c0.83,0.24,1.52,0.67,2.07,1.28c0.55,0.61,0.88,1.35,1.01,2.22C347.17,473.2,347.08,474.15,346.79,475.17z"/>
	<path d="M372.17,477.04c-0.26-0.19-0.63-0.36-1.12-0.53c1.23-0.32,2.11-0.83,2.63-1.53c0.52-0.7,0.73-1.52,0.63-2.44
		c-0.08-0.72-0.34-1.35-0.77-1.9c-0.43-0.55-0.96-0.91-1.59-1.07c-0.63-0.16-1.53-0.18-2.69-0.04l-5.78,0.67l1.52,13.03l1.72-0.2
		l-0.68-5.79l2-0.23c0.44-0.05,0.77-0.07,0.97-0.05c0.28,0.03,0.55,0.12,0.83,0.25s0.6,0.39,0.98,0.77
		c0.37,0.38,0.86,0.93,1.45,1.65l2.04,2.51l2.17-0.25l-2.68-3.28C373.27,477.97,372.73,477.44,372.17,477.04z M369.58,475.32
		l-3.71,0.43l-0.5-4.31l4.13-0.48c0.97-0.11,1.7,0,2.19,0.35c0.49,0.35,0.78,0.83,0.85,1.44c0.05,0.42-0.02,0.82-0.21,1.21
		c-0.19,0.39-0.5,0.69-0.92,0.9C370.98,475.07,370.37,475.22,369.58,475.32z"/>
	<polygon points="395.75,461.85 395.04,460.48 385.81,465.29 386.53,466.66 390.36,464.66 395.71,474.92 397.25,474.12 
		391.9,463.86 	"/>
	<polygon points="415.75,451.3 414.6,450.27 410.49,454.85 407.46,452.13 412.22,446.84 411.07,445.8 405.15,452.39 414.91,461.16 
		416.07,459.87 411.64,455.88 	"/>
	<path d="M431.47,427.63c-0.8-0.87-1.82-1.54-3.07-2c-1.23-0.46-2.42-0.63-3.57-0.51c-1.15,0.12-2.16,0.53-3.04,1.24
		c-0.88,0.71-1.53,1.63-1.96,2.77c-0.65,1.73-0.6,3.36,0.15,4.89c0.75,1.53,2.14,2.67,4.18,3.43c1.08,0.4,2.19,0.55,3.33,0.44
		s2.16-0.52,3.06-1.22c0.9-0.7,1.56-1.63,1.99-2.79c0.4-1.07,0.52-2.16,0.35-3.27C432.75,429.49,432.27,428.5,431.47,427.63z
		 M431.16,433.36c-0.45,1.2-1.25,2.04-2.4,2.52s-2.46,0.44-3.95-0.11c-1.85-0.69-3.02-1.6-3.5-2.72c-0.48-1.13-0.51-2.26-0.08-3.42
		c0.3-0.81,0.78-1.46,1.43-1.96c0.65-0.5,1.42-0.78,2.29-0.84c0.87-0.06,1.81,0.1,2.81,0.47c1.58,0.59,2.66,1.44,3.22,2.55
		C431.56,430.97,431.62,432.14,431.16,433.36z"/>
	<polygon points="423.97,408.51 424,410.25 437.12,410.01 436.97,401.82 435.43,401.84 435.54,408.31 	"/>
	<rect x="420.42" y="384.91" transform="matrix(0.9493 -0.3143 0.3143 0.9493 -99.6192 153.7648)" width="13.12" height="1.74"/>
	<path d="M410.86,369.62c1.12,1.47,2.53,2.29,4.22,2.48c1.69,0.18,3.4-0.39,5.13-1.71c0.92-0.7,1.63-1.56,2.15-2.59
		c0.52-1.02,0.72-2.1,0.6-3.24c-0.12-1.13-0.55-2.19-1.3-3.17c-0.69-0.91-1.55-1.58-2.58-2.04c-1.03-0.45-2.12-0.58-3.28-0.37
		c-1.16,0.21-2.27,0.72-3.33,1.53c-1.04,0.8-1.82,1.71-2.33,2.75c-0.51,1.03-0.7,2.11-0.57,3.24
		C409.69,367.62,410.12,368.66,410.86,369.62z M411.65,364.07c0.41-0.77,1.04-1.48,1.89-2.13c1.34-1.03,2.63-1.48,3.88-1.37
		c1.24,0.11,2.26,0.69,3.05,1.73c0.78,1.02,1.06,2.14,0.86,3.37c-0.21,1.23-0.94,2.32-2.19,3.28c-1.57,1.2-2.96,1.7-4.17,1.51
		c-1.21-0.19-2.19-0.78-2.93-1.75c-0.53-0.69-0.83-1.44-0.9-2.26C411.07,365.63,411.24,364.84,411.65,364.07z"/>
</g>
</svg>
